<svg xmlns="http://www.w3.org/2000/svg" xmlns:xlink="http://www.w3.org/1999/xlink" version="1.1" id="Layer_1" x="0px" y="0px" width="100%" viewBox="0 0 512 512" enable-background="new 0 0 512 512" xml:space="preserve">
<path fill="#FFFFFF" opacity="1.000000" stroke="none" d=" M0.999999,111.000000   C1.000000,74.348305 1.000000,37.696617 1.000000,1.022463   C171.581985,1.022463 342.163971,1.022463 513.000000,1.022463   C513.000000,150.020798 513.000000,299.041748 512.632690,448.416748   C510.744781,442.704681 508.090057,437.425842 503.505096,432.885468   C478.525940,408.149017 453.730103,383.227478 428.870941,358.369843   C422.925568,352.424835 422.948517,352.436554 426.776001,344.541290   C427.399384,343.255402 427.550140,341.736877 428.194153,340.465027   C436.880920,323.309845 440.867371,304.809875 441.713531,285.900696   C442.250763,273.895020 440.722198,261.654846 438.875275,249.712341   C434.178375,219.341049 419.615784,193.702850 398.312134,172.060486   C385.089691,158.627792 369.715973,147.936691 352.117035,140.418304   C335.090759,133.144592 317.454987,128.915039 299.122375,128.188980   C289.168304,127.794762 279.129486,129.227585 269.143646,130.021591   C253.492599,131.266098 238.999954,136.716873 225.140457,143.544189   C207.969543,152.002731 193.149063,163.653610 180.274734,178.027130   C166.579025,193.317657 156.502869,210.545090 150.065643,229.861588   C143.744339,248.830292 141.224060,268.229156 142.734955,288.426392   C143.971725,304.959320 147.128143,320.904663 153.612946,335.889771   C165.978485,364.464142 185.254150,387.420105 211.703659,404.419800   C235.522598,419.728760 261.688110,426.614532 289.534393,427.845886   C297.320587,428.190216 305.184204,426.598755 313.021393,426.017853   C325.382172,425.101562 337.087250,421.451660 348.387207,416.778320   C357.486847,413.014984 366.107086,408.092529 375.072876,403.618011   C401.221283,429.756165 427.571899,456.182068 454.024323,482.505676   C469.275940,497.683014 495.981354,494.565186 507.126129,477.246674   C509.557159,473.468872 511.066254,469.097809 513.000000,465.000000   C513.000000,480.989227 513.000000,496.978424 513.000000,512.938782   C342.333313,512.938782 171.666656,512.938782 1.000000,512.938782   C1.000000,483.230804 1.000000,453.584076 1.357598,423.561005   C2.115542,423.696075 2.712667,424.148102 2.887522,424.727539   C7.501435,440.017303 22.078764,448.812714 36.764393,448.890350   C89.588242,449.169617 142.414734,449.089813 195.239563,448.927368   C206.356140,448.893188 215.677994,444.206604 223.382645,435.516541   C221.752869,434.578888 220.433762,433.674042 219.000900,433.017395   C195.002686,422.019135 174.852081,405.963043 158.266281,385.611084   C144.536377,368.763550 134.242599,349.848053 128.014328,328.934784   C121.885956,308.356995 118.864616,287.496155 120.765762,265.827698   C121.895081,252.956116 123.889236,240.354401 127.534256,228.096588   C135.697052,200.646027 150.240601,176.695755 170.357819,156.459991   C178.681473,148.087296 188.272232,140.734741 198.138763,134.205856   C207.163803,128.233795 217.303436,123.929596 227.029205,119.044304   C229.543137,117.781540 232.232834,116.480888 230.884140,113.364250   C228.487717,107.826416 226.488724,101.564819 222.464447,97.404015   C215.242111,89.936653 206.735260,83.686447 198.601288,77.130981   C178.582870,60.997433 158.508957,44.932098 138.382568,28.933432   C127.230591,20.068613 107.635635,18.978111 96.031601,27.570353   C83.636780,36.748138 71.640732,46.466270 59.512886,56.002300   C48.526157,64.641068 37.324829,73.036247 26.732786,82.137772   C19.120998,88.678429 12.226231,96.081253 5.296881,103.370659   C3.347052,105.421799 2.404539,108.430504 0.999999,111.000000  z"/>
<path fill="#000000" opacity="1.000000" stroke="none" d=" M0.999999,111.468658   C2.404539,108.430504 3.347052,105.421799 5.296881,103.370659   C12.226231,96.081253 19.120998,88.678429 26.732786,82.137772   C37.324829,73.036247 48.526157,64.641068 59.512886,56.002300   C71.640732,46.466270 83.636780,36.748138 96.031601,27.570353   C107.635635,18.978111 127.230591,20.068613 138.382568,28.933432   C158.508957,44.932098 178.582870,60.997433 198.601288,77.130981   C206.735260,83.686447 215.242111,89.936653 222.464447,97.404015   C226.488724,101.564819 228.487717,107.826416 230.884140,113.364250   C232.232834,116.480888 229.543137,117.781540 227.029205,119.044304   C217.303436,123.929596 207.163803,128.233795 198.138763,134.205856   C188.272232,140.734741 178.681473,148.087296 170.357819,156.459991   C150.240601,176.695755 135.697052,200.646027 127.534256,228.096588   C123.889236,240.354401 121.895081,252.956116 120.765762,265.827698   C118.864616,287.496155 121.885956,308.356995 128.014328,328.934784   C134.242599,349.848053 144.536377,368.763550 158.266281,385.611084   C174.852081,405.963043 195.002686,422.019135 219.000900,433.017395   C220.433762,433.674042 221.752869,434.578888 223.382645,435.516541   C215.677994,444.206604 206.356140,448.893188 195.239563,448.927368   C142.414734,449.089813 89.588242,449.169617 36.764393,448.890350   C22.078764,448.812714 7.501435,440.017303 2.887522,424.727539   C2.712667,424.148102 2.115542,423.696075 1.357598,423.092346   C1.000000,319.312439 1.000000,215.624878 0.999999,111.468658  M95.306152,131.028152   C102.039009,137.613373 110.010544,140.059845 119.409935,139.064499   C137.576019,137.140793 149.468369,120.468826 145.623489,102.421783   C142.625946,88.352043 129.419891,78.133209 114.698563,78.867874   C94.824501,79.859680 81.734291,98.266129 86.604134,116.863617   C87.925797,121.910904 91.842178,126.278748 95.306152,131.028152  z"/>
<path fill="#000000" opacity="1.000000" stroke="none" d=" M513.000000,464.533142   C511.066254,469.097809 509.557159,473.468872 507.126129,477.246674   C495.981354,494.565186 469.275940,497.683014 454.024323,482.505676   C427.571899,456.182068 401.221283,429.756165 375.072876,403.618011   C366.107086,408.092529 357.486847,413.014984 348.387207,416.778320   C337.087250,421.451660 325.382172,425.101562 313.021393,426.017853   C305.184204,426.598755 297.320587,428.190216 289.534393,427.845886   C261.688110,426.614532 235.522598,419.728760 211.703659,404.419800   C185.254150,387.420105 165.978485,364.464142 153.612946,335.889771   C147.128143,320.904663 143.971725,304.959320 142.734955,288.426392   C141.224060,268.229156 143.744339,248.830292 150.065643,229.861588   C156.502869,210.545090 166.579025,193.317657 180.274734,178.027130   C193.149063,163.653610 207.969543,152.002731 225.140457,143.544189   C238.999954,136.716873 253.492599,131.266098 269.143646,130.021591   C279.129486,129.227585 289.168304,127.794762 299.122375,128.188980   C317.454987,128.915039 335.090759,133.144592 352.117035,140.418304   C369.715973,147.936691 385.089691,158.627792 398.312134,172.060486   C419.615784,193.702850 434.178375,219.341049 438.875275,249.712341   C440.722198,261.654846 442.250763,273.895020 441.713531,285.900696   C440.867371,304.809875 436.880920,323.309845 428.194153,340.465027   C427.550140,341.736877 427.399384,343.255402 426.776001,344.541290   C422.948517,352.436554 422.925568,352.424835 428.870941,358.369843   C453.730103,383.227478 478.525940,408.149017 503.505096,432.885468   C508.090057,437.425842 510.744781,442.704681 512.632690,448.885437   C513.000000,454.022095 513.000000,459.044189 513.000000,464.533142  M382.971893,206.670135   C375.913086,199.878555 369.365051,192.436218 361.698334,186.419220   C339.981323,169.375229 315.191589,161.621307 287.418610,162.857071   C274.943115,163.412186 263.028748,165.587341 251.408600,169.985260   C230.553055,177.878525 213.546188,190.824112 199.992462,208.481476   C187.018341,225.383820 179.238373,244.536041 177.255890,265.558167   C176.013824,278.728912 176.613693,292.068085 179.879410,305.241364   C186.097519,330.324005 199.662079,350.672699 218.985031,367.202820   C225.765915,373.003601 233.676773,377.802002 241.719315,381.733093   C253.140656,387.315674 265.207947,391.742004 278.177521,391.962433   C289.457214,392.154175 300.925842,392.845490 311.981018,391.156372   C321.795105,389.656952 331.229279,385.393921 340.698761,381.983215   C353.741669,377.285370 364.258606,368.608307 373.896423,359.051117   C384.659943,348.377747 393.049225,335.887177 398.678741,321.713531   C403.226196,310.264221 406.642456,298.472473 406.931091,286.079102   C407.202087,274.443024 407.086029,262.892548 404.169556,251.353745   C400.076355,235.159225 393.477356,220.416977 382.971893,206.670135  z"/>
<path fill="#FFFFFF" opacity="1.000000" stroke="none" d=" M94.936905,130.993286   C91.842178,126.278748 87.925797,121.910904 86.604134,116.863617   C81.734291,98.266129 94.824501,79.859680 114.698563,78.867874   C129.419891,78.133209 142.625946,88.352043 145.623489,102.421783   C149.468369,120.468826 137.576019,137.140793 119.409935,139.064499   C110.010544,140.059845 102.039009,137.613373 94.936905,130.993286  z"/>
<path fill="#FFFFFF" opacity="1.000000" stroke="none" d=" M383.003296,207.033081   C393.477356,220.416977 400.076355,235.159225 404.169556,251.353745   C407.086029,262.892548 407.202087,274.443024 406.931091,286.079102   C406.642456,298.472473 403.226196,310.264221 398.678741,321.713531   C393.049225,335.887177 384.659943,348.377747 373.896423,359.051117   C364.258606,368.608307 353.741669,377.285370 340.698761,381.983215   C331.229279,385.393921 321.795105,389.656952 311.981018,391.156372   C300.925842,392.845490 289.457214,392.154175 278.177521,391.962433   C265.207947,391.742004 253.140656,387.315674 241.719315,381.733093   C233.676773,377.802002 225.765915,373.003601 218.985031,367.202820   C199.662079,350.672699 186.097519,330.324005 179.879410,305.241364   C176.613693,292.068085 176.013824,278.728912 177.255890,265.558167   C179.238373,244.536041 187.018341,225.383820 199.992462,208.481476   C213.546188,190.824112 230.553055,177.878525 251.408600,169.985260   C263.028748,165.587341 274.943115,163.412186 287.418610,162.857071   C315.191589,161.621307 339.981323,169.375229 361.698334,186.419220   C369.365051,192.436218 375.913086,199.878555 383.003296,207.033081  M296.000000,269.500000   C296.000000,241.064667 296.000000,212.629333 296.000000,184.066422   C258.795349,184.891068 228.822784,198.817261 211.046341,231.773697   C189.719315,271.312714 194.568375,309.463837 224.665237,342.639130   C243.194168,363.063324 267.653290,372.529358 296.000000,370.848724   C296.000000,337.094269 296.000000,303.797150 296.000000,269.500000  z"/>
<path fill="#000000" opacity="1.000000" stroke="none" d=" M296.000000,270.000000   C296.000000,303.797150 296.000000,337.094269 296.000000,370.848724   C267.653290,372.529358 243.194168,363.063324 224.665237,342.639130   C194.568375,309.463837 189.719315,271.312714 211.046341,231.773697   C228.822784,198.817261 258.795349,184.891068 296.000000,184.066422   C296.000000,212.629333 296.000000,241.064667 296.000000,270.000000  z"/>
</svg>